<?xml version="1.0" encoding="utf-8"?>
<!-- Generator: Adobe Illustrator 25.2.3, SVG Export Plug-In . SVG Version: 6.00 Build 0)  -->
<svg version="1.1" id="Certification" xmlns="http://www.w3.org/2000/svg" xmlns:xlink="http://www.w3.org/1999/xlink" x="0px"
	 y="0px" viewBox="0 0 36.6 46.3" style="enable-background:new 0 0 36.6 46.3;" xml:space="preserve">
<style type="text/css">
	.st0{fill:#353535;}
	.st1{fill:#E21928;}
</style>
<g id="Group_2" transform="translate(0)">
	<g id="Group_1">
		<path id="Path_24" class="st0" d="M18.3,0C8.2,0,0,8.2,0,18.3C0,24.3,3,30,8,33.4V45c0,0.5,0.2,0.9,0.6,1.1
			c0.4,0.2,0.9,0.3,1.3,0.1l8.4-3.8l8.4,3.8c0.2,0.1,0.4,0.1,0.6,0.1c0.3,0,0.5-0.1,0.7-0.2c0.4-0.2,0.6-0.7,0.6-1.1V33.4
			c8.4-5.7,10.5-17,4.9-25.4C30,3,24.3,0,18.3,0z M25.8,42.9l-7-3.2c-0.2-0.1-0.4-0.1-0.6-0.1c-0.2,0-0.4,0-0.6,0.1l-7,3.2v-8
			c0.7,0.3,1.4,0.6,2.1,0.8c0,0,0.1,0,0.1,0l0.3,0.1l0.2,0.1c0.1,0,0.1,0,0.2,0.1c0.1,0,0.2,0,0.3,0.1c0.1,0,0.1,0,0.2,0
			c0.1,0,0.2,0,0.3,0.1c0.1,0,0.1,0,0.2,0c0.1,0,0.2,0,0.3,0.1l0.1,0c0.1,0,0.2,0,0.3,0.1c0,0,0.1,0,0.1,0l0.4,0.1c0,0,0.1,0,0.1,0
			c0.1,0,0.2,0,0.4,0c0,0,0.1,0,0.1,0c0.1,0,0.2,0,0.4,0c0,0,0.1,0,0.1,0l0.4,0c0,0,0.1,0,0.1,0c0.1,0,0.2,0,0.4,0h0.1
			c0.2,0,0.3,0,0.5,0s0.3,0,0.5,0h0.1c0.1,0,0.2,0,0.4,0c0,0,0.1,0,0.1,0l0.4,0c0,0,0.1,0,0.1,0c0.1,0,0.2,0,0.4,0c0,0,0.1,0,0.1,0
			c0.1,0,0.2,0,0.4,0c0,0,0.1,0,0.1,0l0.4-0.1c0,0,0.1,0,0.1,0c0.1,0,0.2,0,0.3-0.1l0.1,0c0.1,0,0.2,0,0.3-0.1c0.1,0,0.1,0,0.2,0
			c0.1,0,0.2,0,0.3-0.1c0.1,0,0.1,0,0.2,0c0.1,0,0.2,0,0.3-0.1c0.1,0,0.1,0,0.2-0.1l0.2-0.1l0.3-0.1c0,0,0.1,0,0.1,0
			c0.7-0.2,1.4-0.5,2.1-0.8L25.8,42.9L25.8,42.9z M23.4,33l-0.2,0.1l-0.2,0.1c-0.1,0-0.2,0.1-0.3,0.1l-0.2,0.1
			c-0.1,0-0.3,0.1-0.4,0.1c0,0-0.1,0-0.1,0c-0.1,0-0.3,0.1-0.4,0.1c0,0-0.1,0-0.1,0c-0.2,0-0.3,0.1-0.5,0.1c0,0,0,0-0.1,0
			c-0.1,0-0.3,0-0.4,0.1c0,0-0.1,0-0.1,0c-0.2,0-0.3,0-0.5,0.1h0c-0.2,0-0.3,0-0.5,0c0,0-0.1,0-0.1,0c-0.1,0-0.3,0-0.4,0
			c0,0-0.1,0-0.1,0c-0.2,0-0.3,0-0.5,0s-0.3,0-0.5,0c0,0-0.1,0-0.1,0c-0.1,0-0.3,0-0.4,0c0,0-0.1,0-0.1,0c-0.2,0-0.3,0-0.5,0h0
			l-0.5-0.1c0,0-0.1,0-0.1,0c-0.1,0-0.3,0-0.4-0.1c0,0,0,0-0.1,0c-0.2,0-0.3-0.1-0.5-0.1c0,0-0.1,0-0.1,0c-0.1,0-0.3-0.1-0.4-0.1
			c0,0-0.1,0-0.1,0c-0.1,0-0.3-0.1-0.4-0.1c-0.1,0-0.1,0-0.2-0.1c-0.1,0-0.2-0.1-0.3-0.1l-0.2-0.1L13.2,33C5,30.2,0.7,21.3,3.5,13.2
			S15.2,0.7,23.3,3.5S35.8,15.2,33,23.4C31.4,27.9,27.9,31.5,23.4,33L23.4,33z"/>
	</g>
</g>
<g id="Group_4" transform="translate(7.664 6.246)">
	<g id="Group_3">
		<path id="Path_25" class="st1" d="M18.5,12L21,7.3c0.3-0.6,0.1-1.5-0.5-1.8c-0.2-0.1-0.4-0.2-0.6-0.2l-5.3-0.2l-2.8-4.5
			C11.3,0,10.5-0.2,9.9,0.2C9.7,0.3,9.6,0.5,9.5,0.6L6.6,5.2L1.3,5.3C0.8,5.4,0.4,5.6,0.2,6C0,6.4-0.1,6.9,0.2,7.3L2.7,12l-2.5,4.7
			c-0.3,0.6-0.1,1.5,0.5,1.8c0.2,0.1,0.4,0.2,0.6,0.2l5.3,0.2l2.8,4.5c0.4,0.6,1.2,0.8,1.8,0.4c0.2-0.1,0.3-0.2,0.4-0.4l2.8-4.5
			l5.3-0.2c0.5,0,0.9-0.3,1.1-0.7c0.2-0.4,0.2-0.9,0-1.3L18.5,12z M13.8,16.2c-0.4,0-0.8,0.3-1.1,0.6l-2.1,3.3l-2.1-3.3
			c-0.2-0.4-0.6-0.6-1.1-0.6l-3.9-0.1l1.8-3.5c0.2-0.4,0.2-0.9,0-1.3L3.5,7.9l3.9-0.1c0.4,0,0.8-0.3,1.1-0.6l2.1-3.3l2.1,3.3
			c0.2,0.4,0.6,0.6,1.1,0.6l3.9,0.1l-1.8,3.5c-0.2,0.4-0.2,0.9,0,1.3l1.8,3.5L13.8,16.2z"/>
	</g>
</g>
</svg>
