<?xml version="1.0" encoding="utf-8"?>
<!-- Generator: Adobe Illustrator 25.2.3, SVG Export Plug-In . SVG Version: 6.00 Build 0)  -->
<svg version="1.1" id="Layer_1" xmlns="http://www.w3.org/2000/svg" xmlns:xlink="http://www.w3.org/1999/xlink" x="0px" y="0px"
	 viewBox="0 0 512 512" style="enable-background:new 0 0 512 512;" xml:space="preserve">
<style type="text/css">
	.st0{fill:#E21928;}
</style>
<path d="M256,512c-68.4,0-132.7-26.6-181-75S0,324.4,0,256S26.6,123.3,75,75S187.6,0,256,0s132.7,26.6,181,75s75,112.6,75,181
	c0,50.5-15,99.7-43.4,142.1c-6.1,9.2-18.6,11.6-27.7,5.5c-9.2-6.1-11.6-18.6-5.5-27.7C459.3,340,472,298.6,472,256
	c0-119.1-96.9-216-216-216S40,136.9,40,256s96.9,216,216,216c39.5,0,78.1-10.8,111.7-31.1c9.4-5.7,21.7-2.7,27.5,6.7
	c5.7,9.4,2.7,21.7-6.7,27.5C348.6,499.2,302.8,512,256,512z"/>
<path class="st0" d="M334,219.5l-99.7-57.8c-13.2-7.6-28.9-7.7-42.1,0c-13.2,7.6-21.1,21.3-21.1,36.6v115.5c0,15.3,7.9,29,21.1,36.6
	c6.6,3.8,13.8,5.7,21,5.7c7.2,0,14.5-1.9,21.1-5.7l99.7-57.8c13.2-7.6,21-21.3,21-36.5S347.1,227.1,334,219.5z M313.9,257.9
	l-99.7,57.8c-0.3,0.2-1.1,0.6-2.1,0c-1.1-0.6-1.1-1.5-1.1-1.9V198.2c0-0.4,0-1.3,1.1-1.9c0.4-0.2,0.8-0.3,1.1-0.3
	c0.5,0,0.8,0.2,1,0.3l99.7,57.8c0.3,0.2,1.1,0.6,1.1,1.9S314.2,257.7,313.9,257.9z"/>
</svg>
