<?xml version="1.0" encoding="utf-8"?>
<!-- Generator: Adobe Illustrator 25.2.3, SVG Export Plug-In . SVG Version: 6.00 Build 0)  -->
<svg version="1.1" id="Instructor" xmlns="http://www.w3.org/2000/svg" xmlns:xlink="http://www.w3.org/1999/xlink" x="0px" y="0px"
	 viewBox="0 0 47.7 47.7" style="enable-background:new 0 0 47.7 47.7;" xml:space="preserve">
<style type="text/css">
	.st0{fill:#353535;}
	.st1{fill:#E21928;}
</style>
<path id="Path_26" class="st0" d="M25,15.3c0-4.3-3.5-7.8-7.8-7.8S9.3,11,9.3,15.3s3.5,7.8,7.8,7.8h0C21.5,23.1,25,19.6,25,15.3
	C25,15.3,25,15.3,25,15.3z M17.1,20.1c-2.7,0-4.8-2.2-4.8-4.8s2.2-4.8,4.8-4.8s4.8,2.2,4.8,4.8C22,18,19.8,20.1,17.1,20.1z"/>
<path class="st1" d="M32.8,19.6l2.8-6.3c0.3-0.8,0-1.6-0.8-2c-0.8-0.3-1.6,0-2,0.8l-2.7,6C30.9,19.1,31.8,19.4,32.8,19.6z"/>
<path class="st0" d="M46.2,0H1.5C0.7,0,0,0.7,0,1.5v32C0,34.4,0.7,35,1.5,35h6v1.5c0,1.8,1.2,3.3,3,3.7v6c0,0.8,0.7,1.5,1.5,1.5
	h10.4c0.8,0,1.5-0.7,1.5-1.5v-14l3.7-1.8c0.3-0.1,0.5-0.4,0.7-0.6l4.4-8.2c0.3-0.5,0.3-1.1,0.2-1.7l0.1-0.3c-1-0.2-2-0.5-2.6-1.5
	l-0.1,0.2c-0.3,0.1-0.7,0.2-0.9,0.4l-5.9,4.4H11.2c-2.1,0-3.7,1.7-3.7,3.7c0,0,0,0,0,0v5.2H3V3h41.7V32H26.8c-0.8,0-1.5,0.6-1.5,1.5
	c0,0.8,0.6,1.5,1.5,1.5c0,0,0.1,0,0.1,0h19.4c0.8,0,1.5-0.7,1.5-1.5v-32C47.7,0.7,47,0,46.2,0z M11.2,26.1h12.7
	c0.3,0,0.6-0.1,0.9-0.3l3.6-2.7L25.7,28l-4,2c-0.5,0.3-0.8,0.8-0.8,1.3v13.4h-7.5v-6c0-0.8-0.7-1.5-1.5-1.5h-0.7
	c-0.4,0-0.7-0.3-0.7-0.7v-9.7h0C10.4,26.4,10.8,26.1,11.2,26.1z"/>
<circle id="Ellipse_3" class="st1" cx="36.7" cy="7.5" r="1.5"/>
</svg>
