<?xml version="1.0" encoding="utf-8"?>
<!-- Generator: Adobe Illustrator 25.2.3, SVG Export Plug-In . SVG Version: 6.00 Build 0)  -->
<svg version="1.1" id="Schedule" xmlns="http://www.w3.org/2000/svg" xmlns:xlink="http://www.w3.org/1999/xlink" x="0px" y="0px"
	 viewBox="0 0 47.8 47.8" style="enable-background:new 0 0 47.8 47.8;" xml:space="preserve">
<style type="text/css">
	.st0{fill:#353535;}
	.st1{fill:#E21928;}
</style>
<ellipse id="Ellipse_4" class="st0" cx="36.2" cy="19.5" rx="2" ry="1.5"/>
<path id="Path_34" class="st0" d="M40.3,3.7h-2.4V1.9c0-1-0.8-1.9-1.8-1.9c-1,0-1.9,0.8-1.9,1.8c0,0,0,0.1,0,0.1v1.9h-8.5V1.9
	c0-1-0.8-1.9-1.8-1.9c-1,0-1.9,0.8-1.9,1.8c0,0,0,0.1,0,0.1v1.9h-8.4V1.9c0-1-0.8-1.9-1.8-1.9S9.8,0.8,9.8,1.8c0,0,0,0.1,0,0.1v1.9
	H7.5C3.3,3.7,0,7.1,0,11.2v29.1c0,4.1,3.3,7.5,7.5,7.5h14.3c1,0,1.9-0.8,1.9-1.8c0-1-0.8-1.9-1.8-1.9c0,0-0.1,0-0.1,0H7.5
	c-2.1,0-3.7-1.7-3.7-3.7c0,0,0,0,0,0V11.2c0-2.1,1.7-3.7,3.7-3.7c0,0,0,0,0,0h2.3v1.9c0,1,0.8,1.9,1.8,1.9c1,0,1.9-0.8,1.9-1.8
	c0,0,0-0.1,0-0.1V7.5h8.4v1.9c0,1,0.8,1.9,1.8,1.9c1,0,1.9-0.8,1.9-1.8c0,0,0-0.1,0-0.1V7.5h8.5v1.9c0,1,0.8,1.9,1.8,1.9
	c1,0,1.9-0.8,1.9-1.8c0,0,0-0.1,0-0.1V7.5h2.4c2.1,0,3.7,1.7,3.7,3.7c0,0,0,0,0,0v10.6c0,1,0.8,1.9,1.8,1.9c1,0,1.9-0.8,1.9-1.8
	c0,0,0-0.1,0-0.1V11.2C47.8,7.1,44.5,3.7,40.3,3.7z"/>
<path id="Path_35" class="st1" d="M36.5,25.2c-6.2,0-11.3,5.1-11.3,11.3s5.1,11.3,11.3,11.3s11.3-5.1,11.3-11.3v0
	C47.8,30.3,42.8,25.2,36.5,25.2z M36.5,44.1c-4.2,0-7.6-3.4-7.6-7.6s3.4-7.6,7.6-7.6c4.2,0,7.6,3.4,7.6,7.6l0,0
	C44.1,40.7,40.7,44.1,36.5,44.1z"/>
<path id="Path_36" class="st0" d="M39.2,34.6h-0.8v-2c0-1-0.9-1.8-1.9-1.8c-1,0-1.8,0.8-1.8,1.8v3.8c0,1,0.8,1.9,1.9,1.9h2.7
	c1,0,1.8-0.9,1.8-1.9C41,35.5,40.2,34.7,39.2,34.6L39.2,34.6z"/>
<ellipse id="Ellipse_5" class="st0" cx="28.2" cy="19.5" rx="2" ry="1.5"/>
<ellipse id="Ellipse_6" class="st0" cx="19.7" cy="28" rx="1.5" ry="2"/>
<circle id="Ellipse_7" class="st0" cx="11.7" cy="19.5" r="1.5"/>
<ellipse id="Ellipse_8" class="st0" cx="11.7" cy="28" rx="1.5" ry="2"/>
<ellipse id="Ellipse_9" class="st0" cx="11.7" cy="36" rx="1.5" ry="2"/>
<ellipse id="Ellipse_10" class="st0" cx="19.7" cy="36" rx="1.5" ry="2"/>
<circle id="Ellipse_11" class="st0" cx="19.7" cy="19.5" r="1.5"/>
</svg>
