<?xml version="1.0" encoding="utf-8"?>
<!-- Generator: Adobe Illustrator 25.2.3, SVG Export Plug-In . SVG Version: 6.00 Build 0)  -->
<svg version="1.1" id="Layer_1" xmlns="http://www.w3.org/2000/svg" xmlns:xlink="http://www.w3.org/1999/xlink" x="0px" y="0px"
	 viewBox="0 0 45.6 45.8" style="enable-background:new 0 0 45.6 45.8;" xml:space="preserve">
<style type="text/css">
	.st0{fill:#E21928;}
	.st1{fill:#353535;}
</style>
<path id="Path_45" class="st0" d="M22.7,5.8c0.5,0,0.9-0.4,0.9-0.9v-4c0-0.5-0.4-0.9-0.9-0.9c-0.5,0-0.9,0.4-0.9,0.9v4
	C21.8,5.4,22.2,5.8,22.7,5.8L22.7,5.8z"/>
<path id="Path_46" class="st1" d="M44.7,31l-1.6-1.6c-1-0.9-2.4-1.1-3.6-0.5l-3-3l0.1-0.1c1.2-1.2,1.2-3.2,0-4.4
	c-0.4-0.4-1-0.7-1.6-0.8c0.1-0.3,0.1-0.6,0.1-0.9c0-1.5-1-2.8-2.5-3.1c0.1-0.3,0.1-0.6,0.1-0.9c0-0.8-0.3-1.6-0.9-2.2
	c-0.4-0.4-1-0.7-1.6-0.8c0.5-1.7-0.5-3.4-2.1-3.9c-0.4-0.1-0.8-0.2-1.2-0.1l-5.9-1.1c-0.9-0.3-1.9-0.2-2.8,0.4c0,0-0.1,0.1-0.1,0.1
	c-1.1-0.4-2.4-0.1-3.3,0.7c-0.6,0.6-0.9,1.4-0.9,2.2c0,0.3,0,0.6,0.1,0.9c-1.4,0.3-2.5,1.6-2.5,3.1c0,0.3,0,0.6,0.1,0.9
	c-1.4,0.3-2.5,1.6-2.5,3.1c0,0.6,0.2,1.2,0.5,1.8c-1.6,0.6-2.5,2.3-2,4c0.2,0.5,0.4,0.9,0.8,1.2l0.1,0.1l-3,3
	c-1.1-0.5-2.5-0.3-3.4,0.6L0.9,31c-1.2,1.2-1.2,3.1,0,4.3l2,2c0.3,0.4,0.9,0.4,1.3,0.1s0.4-0.9,0.1-1.3c0,0,0,0-0.1-0.1l-2-2
	c-0.5-0.5-0.5-1.2,0-1.7l1.6-1.6c0.4-0.4,1-0.5,1.5-0.2c0.1,0.1,0.2,0.2,0.4,0.3l9.1,9.1c0,0.1,0.1,0.2,0.2,0.3
	c0.1,0.1,0.2,0.1,0.3,0.2c0.2,0.2,0.3,0.5,0.3,0.8c0,0.3-0.1,0.6-0.3,0.8l-1.6,1.6c-0.5,0.5-1.2,0.5-1.7,0l-2-2
	c-0.4-0.3-0.9-0.3-1.3,0.1c-0.3,0.3-0.3,0.9,0,1.2l2,2c0.6,0.6,1.3,0.9,2.1,0.9c0.8,0,1.6-0.3,2.1-0.9l1.6-1.6c1-1,1.2-2.5,0.4-3.7
	l3.4-3.4l0,0c0.4-0.4,1.5-0.3,2.5-0.3c0.8,0.1,1.6,0.1,2.4,0l3.7,3.7c-0.6,1.2-0.4,2.6,0.5,3.6l1.6,1.6c1.2,1.2,3.1,1.2,4.3,0
	l9.7-9.6C45.9,34,45.9,32.1,44.7,31L44.7,31z M20.8,9.3l3.9,0.7l-2.3,2.3c-0.5-0.3-1-0.6-1.4-1c-0.6-0.5-1.1-1.2-1.3-2l0,0V9.2
	C20.1,9.1,20.5,9.2,20.8,9.3L20.8,9.3z M16.3,10c0.5-0.4,1.2-0.5,1.7-0.2c0.4,1.1,1,2,1.8,2.8c0.7,0.7,1.6,1.3,2.6,1.6
	c0.2,0.2,0.2,0.5,0.2,0.8c0,0.4-0.1,0.7-0.4,0.9c-0.5,0.5-1.4,0.5-1.9,0l0,0l-4.1-4C15.8,11.3,15.8,10.5,16.3,10L16.3,10z
	 M13.9,13.9c0.5-0.5,1.4-0.5,1.9,0l3.3,3.3c0.5,0.5,0.5,1.4,0,1.9c-0.5,0.5-1.4,0.5-1.9,0l0,0l-2.5-2.5l0,0l-0.8-0.8
	c-0.2-0.2-0.4-0.6-0.4-0.9C13.5,14.5,13.7,14.2,13.9,13.9z M11.5,17.8c0.2-0.2,0.6-0.4,0.9-0.4c0.3,0,0.7,0.1,0.9,0.4l2.5,2.5
	c0.2,0.2,0.4,0.6,0.4,0.9c0,0.4-0.1,0.7-0.4,0.9c-0.5,0.5-1.4,0.5-1.9,0l-0.9-0.9l0,0l-1.6-1.6C11,19.2,11,18.4,11.5,17.8L11.5,17.8
	z M10,22.6c0.5-0.5,1.4-0.5,1.9,0l0.9,0.9c0.2,0.2,0.4,0.6,0.4,0.9c0,0.3-0.1,0.7-0.4,0.9c-0.5,0.5-1.4,0.5-1.9,0l-0.1-0.1v0l0,0
	L10,24.4C9.5,23.9,9.5,23.1,10,22.6L10,22.6z M28.3,32.8c-0.4-0.4-0.9-0.4-1.3,0l-0.8,0.8c-0.8,0.8-2.1,0.7-3.5,0.6
	c-1.4-0.1-3-0.2-3.9,0.8l-3.3,3.3L7.2,30l2.9-2.9c0.5,0.3,1.1,0.5,1.6,0.5c1.7,0,3.1-1.4,3.1-3.1c0,0,0,0,0,0v0h0
	c1.7,0,3.1-1.4,3.1-3.1c0,0,0,0,0,0v0h0c1.7,0,3.1-1.4,3.1-3.1c0,0,0,0,0,0h0c1.7,0,3.1-1.4,3.1-3.1c0,0,0,0,0,0
	c0-0.6-0.2-1.1-0.5-1.6l2.6-2.6c0.2-0.2,0.4-0.3,0.7-0.4c0,0,0.1,0,0.1,0c0.4-0.1,0.8,0.1,1.1,0.4c0.5,0.5,0.5,1.3,0,1.9
	c0,0,0,0,0,0l-0.8,0.8l0,0l-0.9,0.9c-0.3,0.4-0.3,0.9,0.1,1.3c0.3,0.3,0.9,0.3,1.2,0l0.8-0.8l0,0l0.1-0.1c0.5-0.5,1.4-0.5,1.9,0
	c0.2,0.2,0.4,0.6,0.4,0.9c0,0.4-0.1,0.7-0.4,0.9l-0.8,0.8l0,0L29,18.2c-0.3,0.4-0.3,0.9,0.1,1.3c0.3,0.3,0.8,0.3,1.2,0l0.9-0.9
	c0.5-0.5,1.4-0.5,1.9,0c0.3,0.2,0.4,0.6,0.4,0.9c0,0.4-0.1,0.7-0.4,0.9l-1.6,1.6c-0.4,0.4-0.4,0.9,0,1.3c0.4,0.3,0.9,0.3,1.3,0
	l0.8-0.8c0,0,0,0,0,0c0.5-0.5,1.4-0.5,1.9,0c0.5,0.5,0.5,1.4,0,1.9l-0.8,0.8l0,0l-1.2,1.2c-0.4,0.4-0.4,0.9,0,1.3
	c0.2,0.2,0.4,0.3,0.6,0.3c0.2,0,0.5-0.1,0.6-0.3l0.6-0.6l2.9,2.9l-8.3,8.3l-3-3c0.2-0.1,0.4-0.3,0.6-0.5l0.8-0.8
	C28.7,33.7,28.7,33.2,28.3,32.8C28.4,32.8,28.4,32.8,28.3,32.8L28.3,32.8z M43.5,33.9l-9.7,9.7c-0.5,0.5-1.2,0.5-1.7,0L30.5,42
	c-0.5-0.5-0.5-1.2,0-1.7l9.7-9.6c0.5-0.5,1.2-0.5,1.7,0l1.6,1.6c0.2,0.2,0.4,0.5,0.3,0.8C43.8,33.4,43.7,33.7,43.5,33.9L43.5,33.9z"
	/>
<path id="Path_47" class="st0" d="M10.8,5.1c0.4,0.3,0.9,0.3,1.3,0c0.4-0.4,0.4-0.9,0-1.3L8.7,0.5C8.4,0.1,7.8,0.1,7.5,0.4
	S7.1,1.3,7.4,1.7c0,0,0,0,0.1,0.1L10.8,5.1z"/>
<path id="Path_48" class="st0" d="M34,5.3c0.2,0,0.5-0.1,0.6-0.3L38,1.8c0.3-0.4,0.3-0.9-0.1-1.3c-0.3-0.3-0.9-0.3-1.2,0l-3.3,3.3
	c-0.4,0.4-0.4,0.9,0,1.3C33.6,5.2,33.8,5.3,34,5.3z"/>
<path id="Path_49" class="st0" d="M5.5,38.8c-0.3,0.4-0.3,0.9,0,1.3l0,0c0.4,0.3,0.9,0.3,1.3,0c0.3-0.4,0.3-0.9,0-1.3l0,0
	C6.4,38.4,5.9,38.4,5.5,38.8z"/>
<path id="Path_50" class="st0" d="M30.5,31.5c0.1,0,0.3,0,0.4-0.1c0.4-0.2,0.6-0.8,0.4-1.2c-0.2-0.4-0.7-0.6-1.2-0.4h0
	c-0.4,0.2-0.6,0.8-0.4,1.2c0,0,0,0,0,0C29.9,31.3,30.2,31.5,30.5,31.5L30.5,31.5z"/>
</svg>
