<?xml version="1.0" encoding="utf-8"?>
<!-- Generator: Adobe Illustrator 25.2.3, SVG Export Plug-In . SVG Version: 6.00 Build 0)  -->
<svg version="1.1" id="projects" xmlns="http://www.w3.org/2000/svg" xmlns:xlink="http://www.w3.org/1999/xlink" x="0px" y="0px"
	 viewBox="0 0 45.1 45.1" style="enable-background:new 0 0 45.1 45.1;" xml:space="preserve">
<style type="text/css">
	.st0{fill:#E21928;}
	.st1{fill:#353535;}
</style>
<g id="Group_9" transform="translate(29.276 10.756)">
	<g id="Group_8">
		<path id="Path_41" class="st0" d="M7.5,3L4.9,0.4C4.4-0.1,3.6-0.1,3,0.4c0,0,0,0,0,0L0.4,3C0.1,3.3,0,3.6,0,4v13.2
			c0,0.7,0.6,1.3,1.3,1.3c0,0,0,0,0,0h5.3c0.7,0,1.3-0.6,1.3-1.3c0,0,0,0,0,0V4C7.9,3.6,7.8,3.3,7.5,3z M5.3,15.9H2.6V4.5L4,3.2
			l1.3,1.3L5.3,15.9z"/>
	</g>
</g>
<g id="Group_11" transform="translate(7.936 18.692)">
	<g id="Group_10">
		<path id="Path_42" class="st1" d="M7.5,3L4.9,0.4C4.4-0.1,3.6-0.1,3,0.4c0,0,0,0,0,0L0.4,3C0.1,3.3,0,3.6,0,4v5.3
			c0,0.7,0.6,1.3,1.3,1.3c0,0,0,0,0,0h5.3c0.7,0,1.3-0.6,1.3-1.3c0,0,0,0,0,0V4C7.9,3.6,7.8,3.3,7.5,3z M5.3,7.9H2.6V4.5L4,3.2
			l1.3,1.3L5.3,7.9z"/>
	</g>
</g>
<g id="Group_13" transform="translate(18.606 13.401)">
	<g id="Group_12">
		<path id="Path_43" class="st1" d="M7.5,3L4.9,0.4C4.4-0.1,3.6-0.1,3,0.4c0,0,0,0,0,0L0.4,3C0.1,3.3,0,3.6,0,4v10.6
			c0,0.7,0.6,1.3,1.3,1.3c0,0,0,0,0,0h5.3c0.7,0,1.3-0.6,1.3-1.3c0,0,0,0,0,0V4C7.9,3.6,7.8,3.3,7.5,3z M5.3,13.2H2.6V4.5L4,3.2
			l1.3,1.3L5.3,13.2z"/>
	</g>
</g>
<g id="Group_15">
	<g id="Group_14">
		<path id="Path_44" class="st1" d="M41.2,0H4C1.8,0,0,1.8,0,4v2.6c0,0.7,0.6,1.3,1.3,1.3c0,0,0,0,0,0h1.3v22.7c0,2.2,1.8,4,4,4
			h14.6v2.9c-2.1,0.7-3.1,3-2.4,5.1s3,3.1,5.1,2.4s3.1-3,2.4-5.1c-0.4-1.1-1.3-2-2.4-2.4v-2.9h14.6c2.2,0,4-1.8,4-4V7.9h1.3
			c0.7,0,1.3-0.6,1.3-1.3c0,0,0,0,0,0V4C45.1,1.8,43.4,0,41.2,0z M22.6,42.5c-0.7,0-1.3-0.6-1.3-1.3c0-0.7,0.6-1.3,1.3-1.3
			c0.7,0,1.3,0.6,1.3,1.3C23.9,41.9,23.3,42.5,22.6,42.5C22.6,42.5,22.6,42.5,22.6,42.5z M39.9,30.6c0,0.7-0.6,1.3-1.3,1.3
			c0,0,0,0,0,0H6.6c-0.7,0-1.3-0.6-1.3-1.3c0,0,0,0,0,0V7.9h34.6V30.6z M42.5,5.3H2.6V4c0-0.7,0.6-1.3,1.3-1.3c0,0,0,0,0,0h37.2
			c0.7,0,1.3,0.6,1.3,1.3c0,0,0,0,0,0V5.3z"/>
	</g>
</g>
</svg>
