<?xml version="1.0" encoding="utf-8"?>
<!-- Generator: Adobe Illustrator 25.2.3, SVG Export Plug-In . SVG Version: 6.00 Build 0)  -->
<svg version="1.1" id="Layer_1" xmlns="http://www.w3.org/2000/svg" xmlns:xlink="http://www.w3.org/1999/xlink" x="0px" y="0px"
	 viewBox="0 0 512 512" style="enable-background:new 0 0 512 512;" xml:space="preserve">
<style type="text/css">
	.st0{fill:#E21928;}
</style>
<path d="M500.7,163.2c-5.6-10.4-16.9-23.5-30.3-22c-33.3,3.7-68.3,6.5-104.1,8.4c-1.2-24.5-31.6-35.5-48.2-17.6
	c-10.5-11.7-30.2-11.7-40.7,0c-10.5-11.7-30.2-11.7-40.7,0c-17.2-18.5-48.3-5.9-48.2,19.4c-38.4-1.3-76.4-4.7-114.6-7.7
	c-11.8-0.9-26.2-3.4-38.2-2.4C15.1,143.1-0.2,173.7,0,213c0.1,17.4,9.5,75.8,38.8,69.7c35.6-3.5,71.2-6.9,106.9-8.8v22.3
	c0,33.9,15.8,66.1,42.4,86.9v12.4h-8.5c-4.1,0-7.5,3.4-7.5,7.5v54v47.5c0,4.1,3.4,7.5,7.5,7.5c4.1,0,7.5-3.4,7.5-7.5v-40h90.2
	c4.1,0,7.5-3.4,7.5-7.5s-3.4-7.5-7.5-7.5h-90.2v-39h140v39H315c-4.1,0-7.5,3.4-7.5,7.5s3.4,7.5,7.5,7.5h12.1v40
	c0,4.1,3.4,7.5,7.5,7.5s7.5-3.4,7.5-7.5V457v-54c0-4.1-3.4-7.5-7.5-7.5h-9v-13.8c25.9-21.1,40.7-52,40.7-85.6v-20.4
	c27.9,2,56,4.7,83.7,8.1c26.9,0.3,39.4-38.2,40.9-66.7h13.6c4.7-0.5,7.2-3.1,7.5-7.8C511.4,192.1,507.4,175.7,500.7,163.2
	L500.7,163.2z M15,212.9c-0.1-33.9,12.5-55.6,21.8-56.6c14.4,0.6,26.7,10,34.1,21.9H44.5c-23.8,0-20.9,41.6-19.9,56
	c0.3,3.9,3.5,7,7.5,7h19.3c-3.9,15.9-11.6,23.2-16,26.2C28.2,264.3,15.1,244.2,15,212.9L15,212.9z M44.5,193.3
	c11,3.1,9.7,25,9.2,32.9H39.2C38.2,198.9,43.7,193.9,44.5,193.3z M76.5,263.9l-19.3,1.9c12.4-19.2,16.8-51.3,6.9-72.5h13.6
	c1.7,5.1,3.2,10.9,4.2,17.5c0.6,3.6,3.7,6.3,7.4,6.3h32.7c9.7,0,9.7-15,0-15H95.7c-4.3-20.9-12.5-34.5-20.9-43.2l0.2,0
	c35.7,3.7,73.9,6.2,113.4,7.6v35.7H159c-9.7,0-9.7,15,0,15h29.5V257C151.1,258.2,113.8,260.4,76.5,263.9L76.5,263.9z M351.3,296.1
	c0,30.1-13.8,57.7-37.7,75.9c-1.9,1.4-3,3.6-3,6v17.4H203.1v-16.1c0-2.4-1.1-4.7-3.1-6.1c-24.6-17.9-39.3-46.7-39.3-77.1v-23.1
	c9.3-0.4,18.5-0.8,27.8-1.1v17.8c0,4.1,3.4,7.5,7.5,7.5s7.5-3.4,7.5-7.5V151c0.7-17.1,25.1-17.1,25.7,0.1c0,0,0,81.8,0,81.8
	c0,4.1,3.4,7.5,7.5,7.5s7.5-3.4,7.5-7.5c0,0,0-81.8,0-81.8c0.7-17.1,25.1-17.1,25.7,0c0,0,0,81.8,0,81.8c0,4.1,3.4,7.5,7.5,7.5
	c4.1,0,7.5-3.4,7.5-7.5c0,0,0-81.8,0-81.8c0.7-17.1,25.1-17.1,25.7,0c0,0,0,81.8,0,81.8c0,4.1,3.4,7.5,7.5,7.5s7.5-3.4,7.5-7.5
	c0,0,0-81.8,0-81.8c0.6-17.1,25-17.2,25.7-0.1C351.3,151,351.3,296.1,351.3,296.1L351.3,296.1z M459.6,264.4
	c-2.8,2.8-5.6,4.3-8.3,4.4c-28.2-3.4-56.7-6.1-85-8.1v-43.6h109.6C474.7,236.9,468.3,255.7,459.6,264.4L459.6,264.4z M483.6,202.1
	c0,0-117.3,0-117.3,0v-37.4c36.2-1.9,71.6-4.8,105.3-8.5c10.3,0.5,22.2,18.9,24.9,45.9L483.6,202.1z"/>
<path class="st0" d="M393.3,64c4.1,0,7.5-3.4,7.5-7.5V43.7c-0.3-9.9-14.7-9.9-15,0v12.8C385.8,60.6,389.2,64,393.3,64z"/>
<path class="st0" d="M393.3,123.9c4.1,0,7.5-3.4,7.5-7.5v-12.8c-0.3-9.9-14.7-9.9-15,0v12.8C385.8,120.6,389.2,123.9,393.3,123.9z"
	/>
<path class="st0" d="M416.9,87.5h12.8c9.9-0.3,9.9-14.7,0-15h-12.8C407,72.9,407,87.2,416.9,87.5z"/>
<path class="st0" d="M356.9,87.5h12.8c9.9-0.3,9.9-14.7,0-15h-12.8C347,72.9,347,87.2,356.9,87.5z"/>
<path class="st0" d="M88.7,334.1c-4.1,0-7.5,3.4-7.5,7.5v12.8c0.3,9.9,14.7,9.9,15,0v-12.8C96.2,337.4,92.8,334.1,88.7,334.1z"/>
<path class="st0" d="M88.7,394c-4.1,0-7.5,3.4-7.5,7.5v12.8c0.3,9.9,14.7,9.9,15,0v-12.8C96.2,397.4,92.8,394,88.7,394z"/>
<path class="st0" d="M125.1,370.5h-12.8c-9.9,0.3-9.9,14.7,0,15h12.8C135,385.1,135,370.8,125.1,370.5z"/>
<path class="st0" d="M65.1,370.5H52.3c-9.9,0.3-9.9,14.7,0,15h12.8C75.1,385.1,75.1,370.8,65.1,370.5z"/>
<path class="st0" d="M172,27.8c4.1,0,7.5-3.4,7.5-7.5V7.5c-0.3-9.9-14.7-9.9-15,0v12.8C164.5,24.5,167.8,27.8,172,27.8z"/>
<path class="st0" d="M172,87.8c4.1,0,7.5-3.4,7.5-7.5V67.4c-0.3-9.9-14.7-9.9-15,0v12.8C164.5,84.4,167.8,87.8,172,87.8z"/>
<path class="st0" d="M195.5,51.4h12.8c9.9-0.3,9.9-14.7,0-15h-12.8C185.6,36.7,185.6,51,195.5,51.4z"/>
<path class="st0" d="M135.6,51.4h12.8c9.9-0.3,9.9-14.7,0-15h-12.8C125.6,36.7,125.6,51,135.6,51.4z"/>
<path class="st0" d="M423.3,387.1c-4.1,0-7.5,3.4-7.5,7.5v12.8c0.3,9.9,14.7,9.9,15,0v-12.8C430.8,390.4,427.5,387.1,423.3,387.1z"
	/>
<path class="st0" d="M423.3,447c-4.1,0-7.5,3.4-7.5,7.5v12.8c0.3,9.9,14.7,9.9,15,0v-12.8C430.8,450.4,427.5,447,423.3,447z"/>
<path class="st0" d="M459.7,423.5h-12.8c-9.9,0.3-9.9,14.7,0,15h12.8C469.6,438.1,469.6,423.8,459.7,423.5z"/>
<path class="st0" d="M399.8,423.5h-12.8c-9.9,0.3-9.9,14.7,0,15h12.8C409.7,438.1,409.7,423.8,399.8,423.5z"/>
</svg>
