<?xml version="1.0" encoding="utf-8"?>
<!-- Generator: Adobe Illustrator 25.2.3, SVG Export Plug-In . SVG Version: 6.00 Build 0)  -->
<svg version="1.1" id="Support" xmlns="http://www.w3.org/2000/svg" xmlns:xlink="http://www.w3.org/1999/xlink" x="0px" y="0px"
	 viewBox="0 0 39.7 45.8" style="enable-background:new 0 0 39.7 45.8;" xml:space="preserve">
<style type="text/css">
	.st0{fill:#E21928;}
	.st1{fill:#353535;}
</style>
<path id="Path_37" class="st0" d="M4.6,36.6c-2.5,0-4.6-2-4.6-4.6c0,0,0,0,0,0l0,0v-9.2c0-0.8,0.7-1.5,1.5-1.5c0,0,0,0,0,0h3
	c2.5,0,4.6,2,4.6,4.6c0,0,0,0,0,0l0,0v6.1C9.2,34.6,7.1,36.6,4.6,36.6C4.6,36.6,4.6,36.6,4.6,36.6z M3.1,24.4v7.6
	c0.1,0.8,0.8,1.5,1.7,1.4c0.7-0.1,1.3-0.6,1.4-1.4V26c0-0.8-0.7-1.5-1.5-1.5c0,0,0,0,0,0H3.1z"/>
<path id="Path_38" class="st1" d="M1.8,18.3H1.5c-0.8-0.1-1.4-0.9-1.3-1.8C2.1,5.7,12.3-1.6,23.1,0.3C31.5,1.7,38,8.2,39.4,16.5
	c0.2,0.8-0.2,1.7-1.1,1.9c-0.8,0.2-1.7-0.2-1.9-1.1c0,0,0,0,0,0c0-0.1,0-0.2-0.1-0.3C34.8,7.9,26.2,1.7,17,3.3C10,4.5,4.5,10,3.3,17
	C3.2,17.8,2.5,18.3,1.8,18.3z"/>
<path id="Path_39" class="st0" d="M13.6,9.2c-0.8,0-1.5-0.7-1.5-1.6c0-0.5,0.3-1,0.8-1.3c4.4-2.2,9.6-2.2,14,0
	c0.8,0.3,1.1,1.2,0.8,2c-0.3,0.8-1.2,1.1-2,0.8c0,0-0.1,0-0.1,0L25.4,9c-3.5-1.8-7.7-1.8-11.2,0C14,9.1,13.8,9.2,13.6,9.2L13.6,9.2z
	"/>
<path id="Path_40" class="st1" d="M38.2,21.4h-3.1c-2.5,0-4.6,2-4.6,4.6c0,0,0,0,0,0l0,0v6.1c0,2.5,2,4.6,4.6,4.6c0,0,0,0,0,0l0,0
	c0.4,0,0.9-0.1,1.3-0.2c-0.6,1.9-2.3,3.3-4.4,3.3h-7.9c-0.8-2.4-3.5-3.6-5.8-2.8c-2.4,0.8-3.6,3.5-2.8,5.8c0.8,2.4,3.5,3.6,5.8,2.8
	c1.3-0.5,2.3-1.5,2.8-2.8h7.9c4.2,0,7.6-3.4,7.6-7.6V22.9C39.7,22.1,39,21.4,38.2,21.4L38.2,21.4z M19.8,42.8
	c-0.8,0-1.5-0.7-1.5-1.5s0.7-1.5,1.5-1.5c0.8,0,1.5,0.7,1.5,1.5l0,0C21.4,42.1,20.7,42.8,19.8,42.8C19.9,42.8,19.9,42.8,19.8,42.8z
	 M36.6,32.1c-0.1,0.8-0.8,1.5-1.7,1.4c-0.7-0.1-1.3-0.6-1.4-1.4V26c0-0.8,0.7-1.5,1.5-1.5c0,0,0,0,0,0h1.5L36.6,32.1z"/>
</svg>
